<?xml version="1.0" standalone="no"?>
<!DOCTYPE svg PUBLIC "-//W3C//DTD SVG 20010904//EN"
 "http://www.w3.org/TR/2001/REC-SVG-20010904/DTD/svg10.dtd">
<svg version="1.0" xmlns="http://www.w3.org/2000/svg"
 width="512.000000pt" height="512.000000pt" viewBox="0 0 512.000000 512.000000"
 preserveAspectRatio="xMidYMid meet">
<metadata>
Created by potrace 1.14, written by Peter Selinger 2001-2017
</metadata>
<g transform="translate(0.000000,512.000000) scale(0.100000,-0.100000)"
fill="#000000" stroke="none">
<path d="M2494 4726 c-17 -8 -60 -43 -95 -78 -77 -78 -760 -775 -913 -932 -59
-61 -275 -281 -480 -490 -204 -208 -422 -431 -485 -495 -62 -64 -164 -168
-226 -231 -86 -87 -116 -125 -125 -157 -15 -48 -7 -101 18 -129 65 -73 200
-222 217 -240 18 -18 134 -147 175 -194 8 -9 50 -56 94 -103 43 -48 86 -95 95
-106 20 -23 155 -172 191 -211 14 -15 59 -64 100 -110 41 -46 80 -88 85 -94 6
-6 51 -56 100 -111 50 -55 95 -105 100 -111 20 -21 160 -177 175 -194 31 -35
177 -195 223 -244 26 -28 47 -54 47 -58 0 -4 18 -17 40 -28 41 -21 103 -26
142 -11 13 5 151 136 306 292 l283 283 282 -281 c155 -155 292 -286 304 -292
26 -13 93 -14 125 -2 32 12 127 109 265 267 10 12 54 61 98 109 44 49 89 98
100 111 11 12 54 59 95 104 41 46 86 95 98 109 13 14 40 44 60 66 21 22 75 83
122 135 47 52 92 102 100 110 8 8 35 38 59 65 25 28 84 93 131 145 47 52 106
117 131 145 62 70 55 63 147 163 46 50 91 99 100 110 9 10 46 51 82 91 71 79
100 124 100 157 0 65 -14 87 -124 199 -61 61 -271 275 -466 475 -195 199 -409
418 -475 485 -66 67 -282 288 -480 490 -720 736 -777 792 -814 799 -48 9 -72
7 -107 -8z m88 -385 c2 -5 188 -198 414 -428 227 -230 469 -476 539 -548 101
-103 511 -520 1003 -1021 23 -24 42 -45 42 -47 0 -3 -12 -18 -27 -35 -16 -16
-62 -67 -103 -113 -41 -46 -100 -111 -130 -144 -30 -33 -89 -98 -130 -144 -89
-100 -156 -173 -190 -211 -14 -15 -55 -60 -91 -101 -37 -41 -77 -86 -90 -100
-13 -14 -54 -59 -90 -100 -37 -41 -77 -86 -90 -100 -13 -14 -54 -59 -90 -100
-37 -41 -77 -86 -90 -100 -21 -22 -105 -114 -209 -230 l-35 -39 -210 210
c-115 115 -207 211 -205 214 3 3 188 189 411 413 284 286 417 426 442 468 141
232 118 542 -56 770 -143 186 -400 289 -632 252 -134 -21 -282 -94 -369 -181
-32 -33 -25 -35 -115 41 -118 100 -253 146 -436 146 -97 0 -120 -3 -196 -30
-181 -63 -346 -213 -414 -378 -78 -189 -69 -428 22 -593 50 -91 95 -140 482
-526 l390 -390 -209 -208 -209 -208 -48 52 c-27 29 -67 73 -90 98 -22 25 -52
57 -65 72 -14 15 -56 62 -94 105 -38 42 -78 87 -89 99 -11 12 -51 57 -90 99
-38 43 -75 83 -80 89 -6 6 -51 56 -100 111 -88 99 -117 131 -172 191 -15 17
-62 68 -103 114 -41 46 -97 108 -125 139 -78 85 -86 94 -160 177 -38 42 -89
98 -112 123 l-42 46 42 44 c59 61 265 271 581 592 526 536 1095 1116 1242
1266 140 144 168 166 176 144z m-422 -1568 c108 -44 213 -132 376 -321 l29
-33 65 77 c219 258 369 332 551 274 88 -29 165 -98 207 -187 23 -50 27 -70 26
-148 0 -156 9 -144 -456 -605 l-403 -400 -352 355 c-441 446 -447 452 -473
521 -71 190 26 400 217 470 48 17 167 16 213 -3z"/>
</g>
</svg>
